<svg id="Layer_1" data-name="Layer 1" xmlns="http://www.w3.org/2000/svg" width="64" height="64" viewBox="0 0 64 64"><defs><style>.cls-1{fill:#1d1d1d;}.cls-2{fill:#c8db89;}.cls-3{fill:#cbe7f5;}</style></defs><title>brain-slug</title><g id="brain-slug"><path class="cls-1" d="M16.51,49.27s-1.21-10.71.25-16.92,2.92-9.12,5.42-11a17.48,17.48,0,0,1,5.29-2.62s-1.62-5.33-2.37-5.54-3.54.67-4.71-.17-3-3-3.21-2.83-.46,1-.75,1.17A4.3,4.3,0,0,1,13.85,11c-.58-.37-1.17-.92-.29-1.54a7.17,7.17,0,0,1,4-.83c.75.21,3.63,3,4.08,3s3.92-1,5,.5,2.58,6,2.58,6a6.72,6.72,0,0,1,2.58-.17,13.63,13.63,0,0,1,2.67.38s.33-3.46-1-4-2.75-.12-2.92-1.62-.75-3-1.17-3-.75.33-1.54.42A3.62,3.62,0,0,1,25.39,9c-.12-.42.42-1.75,2.42-2s4.46,2,4.58,3.25,0,2,.13,2.08,3.71,1,4,3a26.19,26.19,0,0,1,0,3.5c.13,0,6.25.54,9.21,10a41.52,41.52,0,0,1,1.46,17.83,5.44,5.44,0,0,1,3.75,5c0,3.88-3.83,5.54-6.92,5s-6.17-1.21-8.46-.87-3.83,1.46-5.83,1.25S24,54.85,20.93,55.6s-5.83,1.29-7-.75A4,4,0,0,1,16.51,49.27Z"/><path class="cls-2" d="M16,51.1c.81-.63,2.87-.62,2.92-.92a50.15,50.15,0,0,1-.71-13.71c.75-7.37,2.08-11.62,5.75-14.29s8-2.42,11.67-1.83S43,24.85,44.43,30.6s.42,17.21.58,17.33,3.38.54,3.5,3.38-1.46,4.5-4.46,3.79a25.52,25.52,0,0,0-8.42-.71c-3.75.17-4.42,1-6.54.79s-3.21-2-7.08-1.42-5.5,1.25-6,.63S14.64,52.15,16,51.1Z"/><path class="cls-1" d="M16.93,52.69a2.88,2.88,0,0,1,2.13-.75c.75.08,1.88.25,1.79.63s0,.54-.42.54-1.08-.54-1.83-.17-1.17.71-1.37.67A.77.77,0,0,1,16.93,52.69Z"/><path class="cls-1" d="M27.85,52.1c.29.06,1,1,1.88,1s2.13-.29,2.21,0,.25.92,0,1a7.79,7.79,0,0,1-2.87-.17c-.58-.29-1.71-.71-1.75-1S27.64,52.06,27.85,52.1Z"/><path class="cls-1" d="M41.93,52.69a10.32,10.32,0,0,1,2.88.08c1.25.21,1.38.25,1.38.46S46,54,45.85,54a17.68,17.68,0,0,0-2.33-.42c-.75,0-.92.13-1.33,0S41.81,52.77,41.93,52.69Z"/><path class="cls-1" d="M35.31,48.6c.31,0,2.21,2.63,2,2.75a4,4,0,0,1-1,.17s-1.67-2.58-1.67-2.75S35,48.65,35.31,48.6Z"/><path class="cls-1" d="M37.43,48.44c-.08-.32.58,0,.83.13a9.7,9.7,0,0,1,1.29,2.79c-.17,0-.71.13-.87,0A28.6,28.6,0,0,1,37.43,48.44Z"/><path class="cls-1" d="M39.68,48.31c-.14-.41.75-.25.83-.17a12.39,12.39,0,0,1,1.21,2.33c-.08.17-.62.29-.75.17A24.45,24.45,0,0,1,39.68,48.31Z"/><path class="cls-1" d="M41.39,47.44s.38-.42.63-.25a11.82,11.82,0,0,1,2.08,2.58c-.08.25-.58.42-.58.42A22.93,22.93,0,0,1,41.39,47.44Z"/><path class="cls-1" d="M42.35,45.44c-.15,0,.25-.75.46-.54a9.9,9.9,0,0,1,1.58,2c0,.29.08.71,0,.71S42.51,45.48,42.35,45.44Z"/><path class="cls-1" d="M21.18,29.31c-.12-.12.21-1.12.88-2.79s1.08-2.25,1.42-2.37.79,0,.75.17-1.25,2.17-1.62,3a13.73,13.73,0,0,0-.46,2C22,29.44,21.26,29.4,21.18,29.31Z"/><path class="cls-1" d="M26.13,31.77c1.29-1.67,3.25-1.92,6.7-2s6.47,1.67,6.92,6.54-2.88,7.58-8.31,7.13-6.84-4.37-7.18-6.21S25,33.23,26.13,31.77Z"/><path class="cls-3" d="M32.7,31.56A5,5,0,0,1,38,36.35c.18,3.79-3.3,5.75-6.84,5.38a5.55,5.55,0,0,1-4.79-5.42C26.33,34.65,27.61,31.69,32.7,31.56Z"/><path class="cls-1" d="M31.22,34.9a2.43,2.43,0,0,1,3.54,1.83c.25,2-2.79,3-4.13,1.63A2,2,0,0,1,31.22,34.9Z"/></g></svg>